<svg width="26" height="26" viewBox="0 0 26 26" fill="none" xmlns="http://www.w3.org/2000/svg">
<path d="M22.6417 2.16663H3.35835C3.0423 2.16663 2.7392 2.29218 2.51572 2.51566C2.29224 2.73914 2.16669 3.04224 2.16669 3.35829V22.6416C2.16669 22.9577 2.29224 23.2608 2.51572 23.4843C2.7392 23.7077 3.0423 23.8333 3.35835 23.8333H13.7367V15.4375H10.92V12.1875H13.7367V9.74996C13.6783 9.1777 13.7459 8.5996 13.9346 8.05621C14.1234 7.51282 14.4287 7.0173 14.8292 6.6044C15.2297 6.19151 15.7157 5.87124 16.2531 5.66605C16.7905 5.46086 17.3662 5.37573 17.94 5.41663C18.7832 5.41144 19.626 5.45484 20.4642 5.54663V8.47163H18.7417C17.3767 8.47163 17.1167 9.12163 17.1167 10.0641V12.155H20.3667L19.9442 15.405H17.1167V23.8333H22.6417C22.7982 23.8333 22.9531 23.8025 23.0977 23.7426C23.2423 23.6827 23.3737 23.5949 23.4843 23.4843C23.595 23.3736 23.6828 23.2422 23.7426 23.0977C23.8025 22.9531 23.8334 22.7981 23.8334 22.6416V3.35829C23.8334 3.2018 23.8025 3.04684 23.7426 2.90226C23.6828 2.75768 23.595 2.62631 23.4843 2.51566C23.3737 2.405 23.2423 2.31722 23.0977 2.25734C22.9531 2.19745 22.7982 2.16663 22.6417 2.16663Z" fill="black"/>
</svg>
