<svg width="50" height="50" viewBox="0 0 50 50" fill="none" xmlns="http://www.w3.org/2000/svg">
<path d="M43.5417 4.16663H6.45835C5.85057 4.16663 5.26767 4.40807 4.8379 4.83784C4.40813 5.26761 4.16669 5.8505 4.16669 6.45829V43.5416C4.16669 44.1494 4.40813 44.7323 4.8379 45.1621C5.26767 45.5919 5.85057 45.8333 6.45835 45.8333H26.4167V29.6875H21V23.4375H26.4167V18.75C26.3045 17.6495 26.4344 16.5377 26.7973 15.4927C27.1603 14.4478 27.7474 13.4948 28.5177 12.7008C29.2879 11.9068 30.2225 11.2909 31.2559 10.8963C32.2894 10.5017 33.3966 10.338 34.5 10.4166C36.1215 10.4066 37.7423 10.4901 39.3542 10.6666V16.2916H36.0417C33.4167 16.2916 32.9167 17.5416 32.9167 19.3541V23.375H39.1667L38.3542 29.625H32.9167V45.8333H43.5417C43.8426 45.8333 44.1406 45.774 44.4187 45.6589C44.6967 45.5437 44.9493 45.3749 45.1621 45.1621C45.3749 44.9493 45.5437 44.6966 45.6589 44.4186C45.7741 44.1406 45.8334 43.8426 45.8334 43.5416V6.45829C45.8334 6.15735 45.7741 5.85935 45.6589 5.58131C45.5437 5.30327 45.3749 5.05064 45.1621 4.83784C44.9493 4.62504 44.6967 4.45624 44.4187 4.34107C44.1406 4.2259 43.8426 4.16663 43.5417 4.16663Z" fill="black"/>
</svg>
