<svg width="50" height="50" viewBox="0 0 50 50" fill="none" xmlns="http://www.w3.org/2000/svg">
<g clip-path="url(#clip0_269_66)">
<path d="M43.5229 4.17913L43.7437 4.16663L44.0146 4.18329L44.2021 4.21663L44.4583 4.28954L44.6812 4.38538L44.8896 4.50413L45.0771 4.64371L45.2479 4.79996L45.3562 4.92288L45.5271 5.16454L45.6354 5.36454C45.7333 5.57288 45.7958 5.79371 45.8229 6.02288L45.8333 6.24371C45.8333 6.39996 45.8167 6.55413 45.7833 6.70204L45.7104 6.95829L32.1021 44.6187C31.8441 45.1803 31.4304 45.6561 30.9101 45.9895C30.3898 46.323 29.7847 46.5002 29.1667 46.5C28.6101 46.5017 28.0625 46.3593 27.5773 46.0866C27.0921 45.8139 26.6857 45.4201 26.3979 44.9437L26.2625 44.6791L19.2792 30.7166L5.38333 23.7666C4.86917 23.5315 4.42576 23.1654 4.09744 22.7051C3.76913 22.2449 3.56742 21.7064 3.5125 21.1437L3.5 20.8333C3.5 19.6666 4.12708 18.6 5.25208 17.9791L5.54375 17.8333L43.0792 4.27913L43.3 4.21663L43.5229 4.17913Z" fill="black"/>
</g>
<defs>
<clipPath id="clip0_269_66">
<rect width="50" height="50" fill="white"/>
</clipPath>
</defs>
</svg>
