<svg width="26" height="26" viewBox="0 0 26 26" fill="none" xmlns="http://www.w3.org/2000/svg">
<g clip-path="url(#clip0_269_66)">
<path d="M22.6319 2.17313L22.7468 2.16663L22.8876 2.17529L22.9851 2.19263L23.1183 2.23054L23.2343 2.28038L23.3426 2.34213L23.4401 2.41471L23.5289 2.49596L23.5853 2.55988L23.6741 2.68554L23.7304 2.78954C23.7813 2.89788 23.8138 3.01271 23.8279 3.13188L23.8333 3.24671C23.8333 3.32796 23.8247 3.40813 23.8073 3.48504L23.7694 3.61829L16.6931 23.2017C16.5589 23.4937 16.3438 23.7411 16.0733 23.9145C15.8027 24.0879 15.488 24.1801 15.1667 24.18C14.8772 24.1809 14.5925 24.1068 14.3402 23.965C14.0879 23.8232 13.8766 23.6184 13.7269 23.3707L13.6565 23.2331L10.0252 15.9726L2.79934 12.3586C2.53198 12.2363 2.3014 12.046 2.13068 11.8067C1.95995 11.5673 1.85507 11.2873 1.82651 10.9947L1.82001 10.8333C1.82001 10.2266 2.14609 9.67196 2.73109 9.34913L2.88276 9.27329L22.4012 2.22513L22.516 2.19263L22.6319 2.17313Z" fill="black"/>
</g>
<defs>
<clipPath id="clip0_269_66">
<rect width="26" height="26" fill="white"/>
</clipPath>
</defs>
</svg>
