<svg width="26" height="26" viewBox="0 0 26 26" fill="none" xmlns="http://www.w3.org/2000/svg">
<path d="M4.33336 21.6667C3.73752 21.6667 3.22727 21.4544 2.80261 21.0297C2.37794 20.605 2.16597 20.0952 2.16669 19.5V6.50004C2.16669 5.90421 2.37902 5.39396 2.80369 4.96929C3.22836 4.54463 3.73824 4.33265 4.33336 4.33338H21.6667C22.2625 4.33338 22.7728 4.54571 23.1974 4.97038C23.6221 5.39504 23.8341 5.90493 23.8334 6.50004V19.5C23.8334 20.0959 23.621 20.6061 23.1964 21.0308C22.7717 21.4555 22.2618 21.6674 21.6667 21.6667H4.33336ZM13 14.0834L21.6667 8.66671V6.50004L13 11.9167L4.33336 6.50004V8.66671L13 14.0834Z" fill="black"/>
</svg>
