<svg width="38" height="30" viewBox="0 0 38 30" fill="none" xmlns="http://www.w3.org/2000/svg">
<path d="M3.75 30C2.71875 30 1.83563 29.6325 1.10063 28.8975C0.365628 28.1625 -0.00124682 27.28 3.18336e-06 26.25V3.75C3.18336e-06 2.71875 0.367503 1.83563 1.1025 1.10063C1.8375 0.365628 2.72 -0.00124682 3.75 3.18336e-06H33.75C34.7813 3.18336e-06 35.6644 0.367503 36.3994 1.1025C37.1344 1.8375 37.5013 2.72 37.5 3.75V26.25C37.5 27.2813 37.1325 28.1644 36.3975 28.8994C35.6625 29.6344 34.78 30.0013 33.75 30H3.75ZM18.75 16.875L3.75 7.5V26.25H33.75V7.5L18.75 16.875ZM18.75 13.125L33.75 3.75H3.75L18.75 13.125ZM3.75 7.5V3.75V26.25V7.5Z" fill="black"/>
</svg>
