<svg width="50" height="50" viewBox="0 0 50 50" fill="none" xmlns="http://www.w3.org/2000/svg">
<path d="M8.33336 41.6667C7.18752 41.6667 6.20627 41.2584 5.38961 40.4417C4.57294 39.625 4.1653 38.6445 4.16669 37.5V12.5C4.16669 11.3542 4.57502 10.373 5.39169 9.55629C6.20836 8.73963 7.18891 8.33199 8.33336 8.33338H41.6667C42.8125 8.33338 43.7938 8.74171 44.6104 9.55838C45.4271 10.375 45.8347 11.3556 45.8334 12.5V37.5C45.8334 38.6459 45.425 39.6271 44.6084 40.4438C43.7917 41.2605 42.8111 41.6681 41.6667 41.6667H8.33336ZM25 27.0834L41.6667 16.6667V12.5L25 22.9167L8.33336 12.5V16.6667L25 27.0834Z" fill="black"/>
</svg>
