<svg width="50" height="50" viewBox="0 0 50 50" fill="none" xmlns="http://www.w3.org/2000/svg">
<path d="M43.75 34.2083V41.575C43.7502 42.1025 43.5504 42.6104 43.1908 42.9962C42.8312 43.3821 42.3387 43.6172 41.8125 43.6542C40.9021 43.7167 40.1583 43.75 39.5833 43.75C21.1729 43.75 6.25 28.8271 6.25 10.4167C6.25 9.84167 6.28125 9.09792 6.34583 8.1875C6.38275 7.66134 6.61788 7.16877 7.00376 6.80918C7.38964 6.4496 7.89755 6.24976 8.425 6.25H15.7917C16.0501 6.24974 16.2994 6.34554 16.4911 6.51879C16.6828 6.69205 16.8033 6.93038 16.8292 7.1875C16.8771 7.66667 16.9208 8.04792 16.9625 8.3375C17.3765 11.2269 18.225 14.0372 19.4792 16.6729C19.6771 17.0896 19.5479 17.5875 19.1729 17.8542L14.6771 21.0667C17.4259 27.4718 22.5303 32.5761 28.9354 35.325L32.1437 30.8375C32.2749 30.6542 32.4662 30.5227 32.6844 30.4659C32.9025 30.4092 33.1337 30.4309 33.3375 30.5271C35.9729 31.779 38.7824 32.6254 41.6708 33.0375C41.9604 33.0792 42.3417 33.1229 42.8167 33.1708C43.0734 33.1972 43.3112 33.3179 43.4841 33.5095C43.6569 33.7012 43.7503 33.9502 43.75 34.2083Z" fill="black"/>
</svg>
