<svg width="45" height="45" viewBox="0 0 45 45" fill="none" xmlns="http://www.w3.org/2000/svg">
<path d="M30.1135 23.4537L29.2036 24.3863C29.2036 24.3863 27.0376 26.6016 21.1276 20.5528C15.2176 14.5039 17.3836 12.2886 17.3836 12.2886L17.9556 11.6998C19.3696 10.2544 19.5036 7.93207 18.2696 6.23559L15.7496 2.77056C14.2216 0.670543 11.2717 0.3926 9.52168 2.18379L6.3817 5.39558C5.51571 6.285 4.93571 7.43383 5.00571 8.71031C5.18571 11.9777 6.6217 19.0045 14.6296 27.2028C23.1236 35.8952 31.0935 36.2411 34.3515 35.9282C35.3835 35.8294 36.2795 35.2899 37.0015 34.5488L39.8415 31.6417C41.7615 29.6796 41.2215 26.3134 38.7655 24.9402L34.9455 22.801C33.3335 21.8992 31.3735 22.1648 30.1135 23.4537Z" fill="black"/>
</svg>
