<svg width="26" height="26" viewBox="0 0 26 26" fill="none" xmlns="http://www.w3.org/2000/svg">
<path d="M22.75 17.7883V21.619C22.7501 21.8933 22.6462 22.1574 22.4592 22.358C22.2722 22.5587 22.0161 22.681 21.7425 22.7002C21.2691 22.7327 20.8823 22.75 20.5833 22.75C11.0099 22.75 3.25 14.9901 3.25 5.41667C3.25 5.11767 3.26625 4.73092 3.29983 4.2575C3.31903 3.9839 3.4413 3.72776 3.64195 3.54078C3.84261 3.35379 4.10672 3.24988 4.381 3.25H8.21167C8.34604 3.24986 8.47567 3.29968 8.57537 3.38977C8.67507 3.47986 8.73773 3.6038 8.75117 3.7375C8.77608 3.98667 8.79883 4.18492 8.8205 4.3355C9.0358 5.838 9.477 7.29932 10.1292 8.66992C10.2321 8.88658 10.1649 9.1455 9.96992 9.28417L7.63208 10.9547C9.06149 14.2853 11.7158 16.9396 15.0464 18.369L16.7148 16.0355C16.7829 15.9402 16.8824 15.8718 16.9959 15.8423C17.1093 15.8128 17.2295 15.824 17.3355 15.8741C18.7059 16.5251 20.1669 16.9652 21.6688 17.1795C21.8194 17.2012 22.0177 17.2239 22.2647 17.2488C22.3982 17.2625 22.5218 17.3253 22.6117 17.425C22.7016 17.5246 22.7502 17.6541 22.75 17.7883Z" fill="black"/>
</svg>
