<svg width="50" height="49" viewBox="0 0 50 49" fill="none" xmlns="http://www.w3.org/2000/svg">
<path d="M36.9565 4.45455H2.17391V0H36.9565V4.45455ZM35.8696 24.5H32.6087V35.6364L40.4565 40.4473L42.087 37.73L35.8696 33.9659V24.5ZM50 33.4091C50 42.0286 43.1957 49 34.7826 49C27.1087 49 20.8043 43.1868 19.7391 35.6364H2.17391V22.2727H0V17.8182L2.17391 6.68182H36.9565L39.1304 17.8182V18.4641C45.413 20.4018 50 26.3486 50 33.4091ZM6.52174 31.1818H19.5652V22.2727H6.52174V31.1818ZM45.6522 33.4091C45.6522 27.2618 40.7826 22.2727 34.7826 22.2727C28.7826 22.2727 23.913 27.2618 23.913 33.4091C23.913 39.5564 28.7826 44.5455 34.7826 44.5455C40.7826 44.5455 45.6522 39.5564 45.6522 33.4091Z" fill="black"/>
</svg>
