<svg width="26" height="25" viewBox="0 0 26 25" fill="none" xmlns="http://www.w3.org/2000/svg">
<path d="M19.2174 2.27273H1.13043V0H19.2174V2.27273ZM18.6522 12.5H16.9565V18.1818L21.0374 20.6364L21.8852 19.25L18.6522 17.3295V12.5ZM26 17.0455C26 21.4432 22.4617 25 18.087 25C14.0965 25 10.8183 22.0341 10.2643 18.1818H1.13043V11.3636H0V9.09091L1.13043 3.40909H19.2174L20.3478 9.09091V9.42045C23.6148 10.4091 26 13.4432 26 17.0455ZM3.3913 15.9091H10.1739V11.3636H3.3913V15.9091ZM23.7391 17.0455C23.7391 13.9091 21.207 11.3636 18.087 11.3636C14.967 11.3636 12.4348 13.9091 12.4348 17.0455C12.4348 20.1818 14.967 22.7273 18.087 22.7273C21.207 22.7273 23.7391 20.1818 23.7391 17.0455Z" fill="black"/>
</svg>
